<?xml version="1.0" standalone="no"?>
<!DOCTYPE svg PUBLIC "-//W3C//DTD SVG 20010904//EN"
 "http://www.w3.org/TR/2001/REC-SVG-20010904/DTD/svg10.dtd">
<svg version="1.0" xmlns="http://www.w3.org/2000/svg"
 width="260.000000pt" height="260.000000pt" viewBox="0 0 260.000000 260.000000"
 preserveAspectRatio="xMidYMid meet">
<metadata>
Created by potrace 1.14, written by Peter Selinger 2001-2017
</metadata>
<g transform="translate(0.000000,260.000000) scale(0.100000,-0.100000)"
fill="#000000" stroke="none">
<path d="M925 1831 c-49 -4 -95 -10 -102 -14 -16 -10 -5 -157 18 -236 12 -39
19 -94 19 -145 0 -194 44 -496 84 -573 36 -72 85 -114 138 -120 57 -7 95 13
143 72 21 25 43 45 49 45 7 0 30 -18 51 -41 50 -51 84 -69 130 -69 72 0 129
50 164 144 29 77 49 203 67 421 12 143 22 209 41 268 17 55 26 104 27 160 l1
82 -70 8 c-38 4 -113 6 -165 5 l-95 -3 -3 -96 c-3 -93 -2 -96 28 -134 31 -39
31 -40 25 -130 -8 -108 -23 -195 -35 -195 -16 0 -23 43 -34 195 l-11 150 -105
0 -105 0 -7 -90 c-7 -89 -35 -275 -45 -301 -3 -8 -9 -14 -14 -14 -19 0 -28 51
-35 194 l-7 146 42 38 42 39 -10 96 c-6 53 -11 99 -11 102 0 6 -87 4 -215 -4z
m210 -68 c3 -38 8 -80 10 -95 4 -27 3 -28 -37 -28 l-41 0 7 -197 c6 -192 26
-364 39 -333 31 75 66 267 74 403 l6 108 96 -3 96 -3 2 -60 c4 -104 23 -276
40 -370 23 -125 24 -121 68 393 l6 62 -31 0 -30 0 0 95 0 95 98 -1 c53 -1 122
-4 152 -7 62 -8 58 5 45 -134 -5 -50 -10 -67 -23 -70 -15 -4 -19 -30 -30 -179
-23 -307 -57 -502 -103 -576 -43 -69 -130 -93 -194 -53 -35 21 -74 75 -95 127
l-12 33 -28 -58 c-36 -77 -98 -132 -148 -132 -81 0 -137 67 -172 206 -29 112
-49 281 -57 470 -3 90 -10 161 -15 158 -12 -8 -17 11 -26 108 l-8 87 41 6 c43
5 115 10 207 13 l56 2 7 -67z"/>
<path d="M205 1790 c-4 -6 -4 -52 -1 -102 6 -86 8 -95 37 -124 l31 -32 -25
-113 c-14 -63 -35 -175 -47 -249 -30 -191 -25 -178 -63 -182 l-32 -3 -3 -102
c-3 -102 -3 -102 25 -120 22 -15 49 -18 149 -18 163 0 164 1 164 142 0 66 -4
103 -11 103 -5 0 -7 5 -4 10 9 14 119 12 133 -2 17 -17 15 -25 -8 -31 -18 -5
-19 -12 -14 -103 4 -83 8 -102 25 -116 27 -23 94 -32 205 -26 133 7 138 13
130 137 -4 52 -9 98 -12 102 -3 5 -20 9 -39 9 -31 0 -35 3 -39 33 -29 173 -51
284 -80 401 -32 127 -34 141 -21 167 10 19 15 60 15 129 l0 100 -254 0 c-165
0 -257 -4 -261 -10z m505 -95 c0 -95 0 -95 -25 -95 -14 0 -25 -3 -25 -7 0 -5
11 -44 25 -88 28 -90 78 -313 95 -425 18 -125 16 -120 55 -120 40 0 40 -1 50
-117 l6 -73 -170 0 -171 0 0 95 0 95 26 0 c24 0 26 3 20 31 -3 17 -6 40 -6 50
0 17 -9 19 -100 19 -99 0 -100 0 -100 -24 0 -13 -3 -31 -6 -40 -5 -12 0 -16
20 -16 l26 0 0 -95 0 -95 -160 0 -160 0 0 94 0 95 37 3 37 3 32 196 c18 107
45 246 61 307 l30 112 -43 0 -43 0 -3 95 -3 95 248 0 247 0 0 -95z"/>
<path d="M472 1450 c-12 -35 -42 -173 -42 -191 0 -5 26 -9 59 -9 l58 0 -13 58
c-7 31 -22 84 -32 117 l-18 60 -12 -35z m40 -160 c3 -21 -2 -26 -24 -28 -25
-3 -28 0 -28 25 0 60 46 62 52 3z"/>
<path d="M1803 1784 c-3 -9 -3 -54 0 -102 6 -78 9 -88 38 -118 l31 -32 -25
-113 c-14 -63 -35 -175 -47 -249 -30 -191 -25 -178 -63 -182 l-32 -3 -3 -102
c-3 -102 -3 -102 25 -120 22 -15 49 -18 149 -18 163 0 164 1 164 142 0 66 -4
103 -11 103 -5 0 -7 5 -4 10 9 14 119 12 133 -2 17 -17 15 -25 -8 -31 -18 -5
-19 -12 -14 -103 4 -83 8 -102 25 -116 27 -23 94 -32 206 -26 133 7 139 14
127 145 l-9 98 -37 3 c-33 3 -38 7 -43 35 -27 171 -50 284 -79 401 -32 127
-34 141 -21 167 10 19 15 60 15 129 l0 100 -255 0 c-225 0 -256 -2 -262 -16z
m507 -89 c0 -95 0 -95 -25 -95 -14 0 -25 -3 -25 -7 0 -5 11 -44 25 -88 28 -90
78 -313 95 -425 18 -125 16 -120 55 -120 40 0 40 -1 50 -117 l6 -73 -170 0
-171 0 0 95 0 95 26 0 c24 0 26 3 20 31 -3 17 -6 40 -6 50 0 17 -9 19 -100 19
-99 0 -100 0 -100 -24 0 -13 -3 -31 -6 -40 -5 -12 0 -16 20 -16 l26 0 0 -95 0
-95 -160 0 -160 0 0 94 0 95 37 3 37 3 32 196 c18 107 45 246 61 307 l30 112
-43 0 -43 0 -3 95 -3 95 248 0 247 0 0 -95z"/>
<path d="M2072 1450 c-12 -35 -42 -173 -42 -191 0 -5 26 -9 59 -9 l58 0 -13
58 c-7 31 -22 84 -32 117 l-18 60 -12 -35z m40 -160 c3 -21 -2 -26 -24 -28
-25 -3 -28 0 -28 25 0 60 46 62 52 3z"/>
</g>
</svg>
